<?xml version="1.0" encoding="utf-8"?>
<!-- Generator: Adobe Illustrator 22.0.1, SVG Export Plug-In . SVG Version: 6.00 Build 0)  -->
<svg version="1.1" id="Layer_1" xmlns="http://www.w3.org/2000/svg" xmlns:xlink="http://www.w3.org/1999/xlink" x="0px" y="0px"
	 width="560px" height="320.1px" viewBox="0 0 560 320.1" style="enable-background:new 0 0 560 320.1;" xml:space="preserve">
<style type="text/css">
	.st0{fill:#BBBBBB;}
	.st1{fill:#5B6670;}
	.st2{fill:#FFCC99;}
	.st3{fill:#FFFFFF;}
	.st4{fill:#EEEEEE;}
	.st5{fill:#ADB3BA;}
	.st6{fill:#996633;}
	.st7{fill:#A39383;}
	.st8{fill:#534741;}
	.st9{clip-path:url(#SVGID_2_);}
	.st10{fill:#ECEDEF;}
	.st11{fill:#E4E6E7;}
	.st12{fill:#E8EAE9;}
	.st13{fill:#F0B77D;}
	.st14{fill:#F9C291;}
	.st15{fill:#415A6B;}
</style>
<g>
	<g>
		<polygon class="st0" points="103,309.8 99.6,318.9 434.1,318.9 422.7,199.7 160.1,199.7 		"/>
	</g>
	<g>
		<path class="st0" d="M124.3,193.3L98.8,169L78,126.1l24.3-1.2l1.2,1.2L124.3,193.3z M124.3,193.3"/>
	</g>
	<path class="st1" d="M96.5,111c0,0,4.6,35.9,8.1,45.2c3.5,9.3,16.2,27.8,19.7,38.2c3.5,10.4,4.6,25.5,4.6,25.5s1.2-31.3-3.5-47.5
		c-5.8-17.4-15.1-29-17.4-39.4C104.6,122.6,103.5,112.2,96.5,111L96.5,111z M96.5,111"/>
	<path class="st2" d="M455.7,29.9c0,0-13.9,16.2-17.4,30.1c0,0-1.2,3.5,0,5.8c1.2,2.3,1.2,3.5-1.2,7c-2.3,3.5-7,8.1-4.6,11.6
		c2.3,3.5,7,4.6,7,4.6s-4.6,8.1,0,10.4c0,0-3.5,2.3,0,6.9c3.5,3.5-3.5,12.7,10.4,17.4c15.1,3.5,18.5,8.1,20.9,11.6l1.2,3.5
		l49.8-16.2c0,0-3.5-7-3.5-17.4V94.8C518.3,94.8,492.8,33.4,455.7,29.9L455.7,29.9z M455.7,29.9"/>
	<path class="st3" d="M448.8,185.2c0,0-2.3-5.8,1.2-15.1c3.5-9.3,5.8-5.8,8.1-17.4c1.2-12.7,0-17.4,0-17.4l26.7-9.3l54.5,33.6
		c0,0,2.3,47.5-3.5,69.5c-5.8,20.9-23.2,42.9-23.2,42.9L448.8,185.2z M448.8,185.2"/>
	<g>
		<path class="st4" d="M458,135.4c0,0,2.3-1.2,2.3,3.5c1.2,4.6,5.8,18.5,5.8,20.9c0,2.3-1.2,2.3-1.2,2.3s24.3-15.1,35.9-18.5
			c11.6-4.6,26.6-15.1,26.6-15.1s0-7-1.2-10.4c0-1.2-2.3-2.3-3.5-2.3C500.9,120.3,478.9,126.1,458,135.4L458,135.4z M458,135.4"/>
	</g>
	<g>
		<path class="st4" d="M271.5,192.1l-5.8,3.5l-4.6,11.6c0,1.2-1.2,2.3-1.2,2.3c0,1.2,0,2.3,1.2,2.3l51,1.2c2.3,0,3.5-1.2,3.5-3.5
			l-1.2-12.7L271.5,192.1z M271.5,192.1"/>
	</g>
	<g>
		<rect x="265.7" y="180.5" class="st0" width="49.8" height="16.2"/>
	</g>
	<path class="st5" d="M385,191l-201.6-3.5c-3.5,0-5.8-2.3-5.8-5.8v-139c0-3.5,2.3-5.8,5.8-5.8l207.4,3.5c3.5,0,5.8,2.3,5.8,5.8
		L392,184C390.8,188.7,388.5,191,385,191L385,191z M385,191"/>
	<path class="st5" d="M395.5,47.3l-4.6,124l-214.4-7V42.7c0-3.5,2.3-5.8,5.8-5.8l207.4,3.5C393.1,41.5,396.6,43.8,395.5,47.3
		L395.5,47.3z M395.5,47.3"/>
	<path class="st1" d="M390.8,41.5L183.4,38c-3.5,0-5.8,2.3-5.8,5.8v121.7l214.4,6.9l3.5-125.1C396.6,43.8,393.1,41.5,390.8,41.5
		L390.8,41.5z M390.8,41.5"/>
	<g>
		<g>
			<path class="st0" d="M186.9,47.3l1.2,107.8l194.7,7l3.5-111.2L186.9,47.3z M186.9,47.3"/>
		</g>
	</g>
	<g>
		<path class="st4" d="M392,171.3v13.9c0,3.5-2.3,5.8-5.8,5.8l-201.6-3.5c-3.5,0-5.8-2.3-5.8-5.8v-17.4L392,171.3z M392,171.3"/>
	</g>
	<path class="st6" d="M215.9,178.2l2.3,1.2l-1.2,1.2c0,0-1.2,1.2-2.3,0C215.9,179.4,214.7,178.2,215.9,178.2L215.9,178.2z
		 M215.9,178.2"/>
	<path class="st1" d="M459.2,166.6c0,0,20.9-8.1,37.1-7c16.2,1.2,35.9,19.7,38.2,44c2.3,24.3-12.7,48.7-55.6,60.2
		c-41.7,11.6-46.3,20.9-46.3,20.9v32.4h106.8c0,0,21.6-71.8,18.4-140.2c-1.3-27.8-29-49.8-29-49.8s-19.7,6.9-34.8,11.6
		C478.9,143.5,462.7,160.8,459.2,166.6L459.2,166.6z M459.2,166.6"/>
	<path class="st2" d="M312,215.3l-3.5,2.3c0,0-3.5,10.4-3.5,12.7c0,2.3,3.5,2.3,4.6,0c1.2-2.3,3.5-9.3,3.5-9.3l2.3-3.5
		c0,0-2.3,5.8-2.3,9.3c0,3.5,0,5.8,2.3,6.9c2.3,0,3.5-1.2,3.5-2.3c0,0,1.2,1.2,2.3,1.2c2.3,0,2.3-1.2,2.3-2.3c0,0,1.2,1.2,2.3,1.2
		h2.3l2.3-4.6v-9.3l-4.6-5.8L312,215.3z M312,215.3"/>
	<path class="st2" d="M316.7,222.3c0,0-4.6,1.2-7,4.6c-2.3,2.3,0,5.8,3.5,5.8c3.5,0,8.1-1.2,10.4-3.5c2.3-1.2,5.8-3.5,8.1-3.5
		s4.6,2.3,12.7,2.3c8.1,0,22-2.3,29-2.3l7,1.2l-8.1-17.4c0,0-13.9,1.2-17.4,0c-3.5-1.2-22-5.8-24.3-7c-3.5-1.2-4.6,0-5.8,1.2
		c-1.2,1.2-11.6,6.9-12.7,8.1c-1.2,1.2-2.3,5.8-2.3,5.8l4.6,2.3l2.3-2.3c1.2-1.2,4.6-3.5,4.6-3.5h7l1.2,3.5
		C328.3,216.5,322.5,221.1,316.7,222.3L316.7,222.3z M316.7,222.3"/>
	<g>
		<path class="st4" d="M366.5,230.4c0,0-2.3-16.2,2.3-20.9l25.5,1.2c0,0,7-2.3,12.7-2.3c5.8,0,9.3-1.2,12.7-1.2
			c3.5-1.2,18.5-4.6,18.5-4.6l15.1,25.5c0,0-27.8,5.8-39.4,5.8c-11.6,0-20.9-1.2-20.9-1.2L366.5,230.4z M366.5,230.4"/>
	</g>
	<path class="st3" d="M404.7,237.3c0,0-1.2,2.3,1.2,0c2.3-2.3,10.4-4.6,11.6-7c2.3-2.3,9.3-9.3,11.6-15.1c2.3-5.8,2.3-12.7,7-17.4
		c4.6-4.6,12.7-38.2,35.9-27.8c22,10.4,34.8,35.9,33.6,53.3c-1.2,18.5,1.2,26.7-7,33.6c-8.1,7-37.1,23.2-54.5,27.8
		c-17.4,4.6-27.8,7-32.4,9.3c-4.6,1.2-17.4,2.3-23.2-1.2c-5.8-4.6-9.3-16.2-5.8-27.8c3.5-11.6,3.5-17.4,3.5-17.4
		S388.5,241.9,404.7,237.3L404.7,237.3z M404.7,237.3"/>
	<path class="st7" d="M453.4,89l8.1,2.3c0,0-1.2-8.1,4.6-12.7c5.8-4.6,15.1,5.8,20.9,17.4c5.8,11.6,30.1,9.3,30.1,9.3
		s0-8.1,5.8-17.4c5.8-9.3,13.9-45.2-13.9-64.9c-27.8-19.7-57.9-2.3-57.9-2.3s-5.8,10.4,1.2,13.9c7,3.5,8.1,1.2,7,7
		c-1.2,4.6-5.8,7-7,11.6c0,1.2,0,3.5,1.2,4.6C454.6,61.2,456.9,68.1,453.4,89L453.4,89z M453.4,89"/>
	<path class="st2" d="M137.1,45c0,0-3.5,9.3-4.6,11.6c-2.3,2.3-1.2,4.6,0,7c1.2,2.3,4.6,7,5.8,8.1c1.2,1.2,0,4.6-2.3,4.6h-4.6
		c0,0,2.3,9.3-2.3,9.3c0,0,2.3,2.3,0,3.5c-2.3,2.3,2.3,10.4-10.4,12.7c-12.7,3.5-24.3,23.2-24.3,23.2L53.7,94.8l2.3-8.1
		c0,0,10.4-42.9,27.8-51C100,28.8,138.2,31.1,137.1,45L137.1,45z M137.1,45"/>
	<path class="st8" d="M56,86.7c0,0,24.3-2.3,25.5-19.7c2.3-18.5,20.9-13.9,22-5.8c1.2,8.1,2.3,7,2.3,7l5.8-1.2c0,0-5.8-7,1.2-12.7
		c7-5.8,10.4-2.3,12.7-6.9c0,0-2.3,6.9-5.8,9.3c0,0,10.4,0,13.9-3.5c3.5-3.5,8.9-15.8,10.1-22.8c0-7-12.1-18-31.8-25
		c-19.7-7-31.2-2.8-45.4,6.8C50.7,22.9,51.7,36.4,51.7,44.5C50.6,54.9,52.5,76.3,56,86.7L56,86.7z M56,86.7"/>
	<path class="st3" d="M56,86.7c0,0,5.8,9.3,16.2,17.4c10.4,8.1,30.1,18.5,30.1,18.5l-11.6,32.4l-42.9-54.5L56,86.7z M56,86.7"/>
	<path class="st1" d="M129,258.2c-13.9,30.1-26.7,57.9-26.7,60.3H24.7c0,0-11.6-59.1-17.4-80c-4-17-5.8-35.7-5.2-53.1
		c0.5-13.2,2.9-26.5,8.4-38.6c5.8-12.8,15-23.3,23.7-34.3c3.3-4.2,7-8.8,11.4-11.9c0,0,59.1,67.2,69.5,83.4
		c10.4,15.1,14.4,47.8,14.4,47.8v25L129,258.2z"/>
	<path class="st1" d="M78,219.9c1.2-19.7-5.8-40.6-15.1-51c-9.3-10.4-26.7-11.6-40.6,3.5c-13.9,15.1-8.1,39.4-8.1,39.4
		S27,245.4,29.3,257c1.2,11.6,16.2,34.8,33.6,45.2c10.4,5.8,27.8,10.4,40.6,13.9c2.3-5.8,7.7-20.8,15.8-37c-0.9-1.1-1.9-2.1-2.8-3.2
		C98.4,255.6,76.9,230.9,78,219.9L78,219.9z M78,219.9"/>
	<path class="st1" d="M53.7,91.3c0,0,4.6,13.9,17.4,26.6c12.7,12.7,44,56.8,51,69.5c7,12.7,7,45.2,7,45.2s-3.5-23.2-7-33.6
		c-3.5-10.4-26.7-38.2-37.1-47.5c-9.3-8.1-27-37.7-38.2-45.2c-4.2-2.8,0-5.8,1.2-8.1L53.7,91.3z M53.7,91.3"/>
	<g>
		<path class="st2" d="M190.5,300.6c0.7,0,7.9-1.5,9.5-0.9c1.6,0.5,7.3,3,15.3,0.7c8-2.3,15.4-4.2,15.4-4.2s19.7,9.4,22.2,4.2
			l-7.5-5.4c0,0,5.5,2.7,8.3,2.1c2.8-0.6,3.6-2.9,3.6-2.9l-4.6-2.5c0,0,4.5,0.6,5.6-1.7l-10.6-9.2l-9.2-2l8.9-2.6
			c0,0,6.6,2.2,10.1,1.9c3.5-0.3,4-2.3,4-2.3s-13.9-5.2-15-5.6s-17.5,3.5-17.5,3.5s-24,5.5-28.6,5.8s-13.7,0.8-13.7,0.8L190.5,300.6
			z"/>
		<path class="st3" d="M189.3,278.7l4.5-0.4l1.7,24.6c0,0-3.4,2.5-6.6,1.9C185.7,304.3,189.3,278.7,189.3,278.7z"/>
		<path class="st1" d="M135.9,281.8c10.2,0.3,48.8-2.6,53.4-3c0,0,0.4,22.3,0.8,23.8s0,7.9,0,7.9s-100.3,15.9-106.7,1.9
			s-24.6-43.5-24.6-43.5l51.1-1.1C109.8,267.8,121.5,281.4,135.9,281.8z"/>
	</g>
	<g>
		<defs>
			<polygon id="SVGID_1_" points="186.9,47.3 386.2,50.8 382.7,162 188.1,155 			"/>
		</defs>
		<clipPath id="SVGID_2_">
			<use xlink:href="#SVGID_1_"  style="overflow:visible;"/>
		</clipPath>
		<g class="st9">
			<path class="st10" d="M322.3,118.7l11.9,1.3c0,0,4.4,3.1,4.8,7.9c0.4,4.8,0.4,14.1,0.4,14.1s0,7-0.4,10.6
				c-0.9,3.5-4.4,30.4-4.4,30.4h-26.4c0,0,0.9-38.3,5.7-47.1C318.4,127.5,322.3,118.7,322.3,118.7z"/>
			<path class="st11" d="M243.5,116.5l2.2-6.2c0,0,5.3-2.2,11-4c5.7-1.8,17.6-5.7,19.8-5.7c2.6,0,2.2,0.4,2.2,0.4l-6.6,48.4l-23.3-7
				L243.5,116.5z"/>
			<g>
				
					<ellipse transform="matrix(0.9982 -6.069734e-02 6.069734e-02 0.9982 -4.0768 18.5849)" class="st2" cx="303.9" cy="76.4" rx="3.5" ry="6.2"/>
				
					<ellipse transform="matrix(0.9323 -0.3617 0.3617 0.9323 -11.5199 103.6941)" class="st2" cx="271.2" cy="82.6" rx="3.5" ry="6.2"/>
				<path class="st2" d="M302.5,65l1.3,9.7c0,0,1.3,8.8-0.4,13.2l1.8,18.9l-22.9,3.1l-2.6-15c0,0-6.2-0.9-9.2-12.3
					c-3.1-11.4-3.1-11.4-3.1-11.4s-4.4-11.9,3.5-18.5c7.5-6.6,21.1-3.5,25.1-1.3C299.4,53.5,302.5,59.2,302.5,65z"/>
			</g>
			<path class="st11" d="M308.3,102.8c0,0,4.8,1.8,5.3,3.5c0.4,1.8,7,4,9.7,5.3c2.2,1.3,10.6,8.4,10.6,8.4s-9.2,7.5-15,15.9
				c-5.3,7.9-10.6,47.1-10.6,47.1H255l29.1-73.1l13.7-7H308.3z"/>
			<path class="st12" d="M304.3,96.7c0,0-3.8,4.5-8.6,6.3c0,0,1.1,0.3,1.1,2.1c-0.4,2.2,0,6.2,0.4,7.5c0,0,9.7-4.8,11.9-7l0.9-1.3
				c0.4-0.4,0.4-0.9,0-1.3c-1.3-1.3-4-4.8-4-5.7C305.6,95.8,304.3,96.7,304.3,96.7z"/>
			<path class="st6" d="M303,61.9c-0.9-5.3-1.8-17.2-12.3-15c0,0-5.7-8.8-18.5-2.2c-12.3,6.6-7.5,23.8-7,26.4
				c0.4,2.2,4,9.2,4.8,11.4c0,0,0.4,0,0.4-0.4c-0.4-0.9-1.5-3.9-1.5-7c0-4-0.3-4.9-1.6-8.4c-0.9-3.1-2.6-7.9,3.1-11.4
				s13.2-5.3,18.1-4c4.8,1.3,8.4,0.9,8.8,4c0.4,3.1,2.2,7.5,3.1,10.1c0.9,2.2,2.6,9.2,2.6,9.2h0.4C303.9,75.1,303.9,67.2,303,61.9z"
				/>
			<path class="st13" d="M303.4,88.3c0,0-6.2,12.3-23.8,6.6l2.2,12.3C289.3,104.1,301.7,98,303.4,88.3z"/>
			<path class="st14" d="M276.5,88.7c0,0,0.9-0.4,1.8,0.4c0.9,0.9,1.8,3.5,1.8,3.5s3.5-4,4.4-5.3c0.9-1.3,6.6-4.4,7.5-4.8
				c1.3-0.9,3.5-0.9,3.5-0.9s1.3,0.9,0.4,2.2c-0.9,1.3-3.5,2.6-3.5,2.6s-2.6,3.1-3.5,3.5l-2.2,3.5c0,0,4-0.9,4.8-1.3
				c0.9-0.4,2.6,0.9,2.6,0.9s2.2,1.8,2.6,3.5c0.4,1.8-0.9,3.5-0.9,3.5s0.4,2.2,0.4,4c0,0,0.4,4-2.2,6.6c0,0-2.2-0.4-1.8-2.2
				c0,0-1.3,3.1-3.1,4.8c-1.8,1.8-4.8,4.8-5.7,7.5c-0.9,2.6-0.9,2.6-0.9,2.6l-11.9-6.6c0,0,1.8-4,2.6-5.7s0.9-5.3,0.9-7
				s1.3-4.4,1.8-5.3c0.4-0.9,0.4-4.4,0.9-5.7L276.5,88.7z"/>
			<path class="st10" d="M245.3,110.3c-0.4,3.1,5.3,14.5,10.6,20.3c5.3,5.3,4.4,8.4,4.4,8.4s0.4-5.3,2.6-8.8
				c2.2-3.5,2.2-3.5,3.5-5.7c1.3-2.2,5.3-11.4,5.3-11.4s15.4,3.5,18.1,7.5l-4.4,13.2c0,0-0.9,10.1-2.2,15c-1.3,5.3-5.7,12.3-6.6,15
				c-0.9,2.6-4.4,9.7-5.3,11c-0.9,1.8-11.9,8.4-16.3,8.4c-4.4,0-8.8-4.8-11.9-9.7c-3.1-5.3-4.4-14.5-4.4-18.9
				c0-4.4-1.3-28.6-0.9-31.7C238.7,117.4,245.3,110.3,245.3,110.3z"/>
			<path class="st11" d="M260.3,138.9L260.3,138.9c0,0.4,0,0.4,0,0.4s0,0,0,0.4v0.4v0.4c0,0,0,0,0,0.4c0,0,0,0,0,0.4l-0.4,0.4
				c-0.4,0.4-0.4,0.9-0.9,0.9c-0.4,0.4-0.9,0.4-1.3,0.9l0,0l0,0c0,0,0,0-0.4,0.4l-0.4,0.4c-0.4,0.4-0.9,0.9-1.3,1.3
				c-0.4,0.4-0.9,0.9-1.3,1.3c-0.4,0.4-0.9,0.9-0.9,1.3l-0.4,0.4l0,0l0,0l0,0v0.4c0,0.4,0,0.9-0.4,1.3c0,0.4,0,0.9-0.4,1.3
				c0,0.4-0.4,0.4-0.4,0.9c0,0.4-0.4,0.4-0.4,0.4l0,0l0,0c0,0,0-0.4,0.4-0.4c-0.4-0.4-0.4-0.4-0.4-0.9c0-0.4,0-0.9,0-1.3
				s0-0.9,0-1.3v-0.4l0,0l0,0l0,0v-0.4c0,0,0-0.4,0.4-0.4c0.4-0.4,0.9-0.9,0.9-1.3c0.4-0.4,0.9-0.9,1.3-1.3c0.4-0.4,0.9-0.9,1.3-1.3
				l0.4-0.4c0,0,0,0,0.4-0.4l0,0l0,0c0.4-0.4,0.9-0.4,1.3-0.9c0.4-0.4,0.9-0.4,0.9-0.9l0.4-0.4c0,0,0,0,0-0.4l0,0v-0.4v-0.4l1.1-6.3
				C261.4,133.5,260.3,139.4,260.3,138.9L260.3,138.9z"/>
		</g>
	</g>
	<g>
		<path class="st2" d="M208.9,173.6c0,0,8.1-2.3,11.6-5.8c3.5-3.5,2.3-4.6,3.5-5.8c1.2-1.2,5.8-2.3,5.8-2.3s11.6,0,7-8.1l-4.6,1.2
			h-3.5c-2.3,0-4.6,0-9.3-1.2c-3.5,0-7-1.2-9.3,1.2c-2.3,1.2-5.8,5.8-6.9,7c-2.3,1.2-22,8.1-22,8.1l9.3,17.4c0,0,13.9,0,22-3.5
			c8.1-2.3,15.1-8.1,17.4-12.7c2.3-4.6,2.3-9.3,2.3-9.3s-9.3,12.7-15.1,15.1C211.2,178.2,208.9,173.6,208.9,173.6L208.9,173.6z
			 M208.9,173.6"/>
		<path class="st3" d="M177.4,169.2l9.3-3.5c0,0,2.5,18.3,9.5,25.3l-24.3,10.4L177.4,169.2z M177.6,170.1"/>
		<path class="st2" d="M204.3,181.7l13.9-3.5l13.9-10.4l2.3-4.6v-5.8l-17.4,3.5C218.2,159.7,197.3,175.9,204.3,181.7L204.3,181.7z
			 M204.3,181.7"/>
		<path class="st15" d="M215.9,177.1l2.3,2.3c1.2,0,4.6-3.5,11.6-11.6l3.5-3.5c3.5-4.6,7-9.3,11.6-13.9l2.3-2.3
			c2.3-3.5,4.6-7,6.9-11.6c-3.5,2.3-6.9,4.6-10.4,8.1l-2.3,2.3c-3.5,4.6-8.1,9.3-11.6,13.9l-3.5,3.5
			C218.2,171.3,217,174.7,215.9,177.1L215.9,177.1z M215.9,177.1"/>
		<path class="st2" d="M215.9,174.7c0,0-3.5,2.3-1.2,5.8c2.3,3.5,9.3,2.3,10.4,1.2c1.2-1.2,2.3-3.5,2.3-3.5s4.6-1.2,4.6-3.5v-2.3
			c0,0,3.5-1.2,4.6-3.5c1.2-2.3-1.2-4.6-1.2-4.6v-1.2c0,0,5.8,0,5.8-3.5c0-3.5-2.3-4.6-2.3-4.6s-9.3,5.8-5.8,9.3v1.2
			c0,0-2.3,1.2-5.8,1.2h-4.6c-1.2,0-4.6,2.3-1.2,4.6c3.5,2.3,2.3,2.3,2.3,2.3s-2.3,1.2-3.5,0c-1.2-1.2-2.3-1.2-3.5,0
			C215.9,172.4,215.9,174.7,215.9,174.7L215.9,174.7z M215.9,174.7"/>
		<path class="st2" d="M236.7,152.7l-4.6,1.2H224v9.3c1.2-1.2,5.8-2.3,5.8-2.3S240.2,160.8,236.7,152.7L236.7,152.7z M236.7,152.7"
			/>
		<path class="st1" d="M183.2,165.6c-2.1,0.6-10.5,4.8-12.5,5.6c-5,1.9-10,4-15.1,5.8c-9.6,3.4-19.8,6-30.1,6l-16.2,1.2l10.4,38.2
			c0,0,29-8.1,37.1-11.6c9.3-4.6,33.6-10.4,33.6-10.4S178.6,174.9,183.2,165.6z M183.4,166.6"/>
	</g>
</g>
<g>
</g>
<g>
</g>
<g>
</g>
<g>
</g>
<g>
</g>
<g>
</g>
<g>
</g>
<g>
</g>
<g>
</g>
<g>
</g>
<g>
</g>
<g>
</g>
<g>
</g>
<g>
</g>
<g>
</g>
</svg>
